<?xml version="1.0" encoding="UTF-8" standalone="no"?>
<!DOCTYPE svg PUBLIC "-//W3C//DTD SVG 1.0//EN" "http://www.w3.org/TR/2001/REC-SVG-20010904/DTD/svg10.dtd">
<!-- Created with Inkscape (http://www.inkscape.org/) -->
<svg
        xmlns="http://www.w3.org/2000/svg"
        xmlns:inkscape="http://www.inkscape.org/namespaces/inkscape"
        version="1.0"
        width="800"
        height="500"
        id="svg2">
  <defs
     id="defs4">
    <filter
       id="filter3641">
      <feGaussianBlur
         id="feGaussianBlur3643"
         stdDeviation="12.385077"
         inkscape:collect="always" />
    </filter>
  </defs>
  <g
     id="layer1">
    <g
       transform="matrix(1.1103449,0,0,1.1103449,-125.56544,-317.12388)"
       id="g3645">
      <rect
         width="720.49683"
         height="450.31052"
         x="113.08688"
         y="285.60846"
         id="rect3198"
         style="opacity:1;fill:#113da5;fill-opacity:1;fill-rule:nonzero;stroke:none;stroke-width:18;stroke-linecap:butt;stroke-linejoin:miter;stroke-miterlimit:4;stroke-dasharray:none;stroke-opacity:1" />
      <path
         d="M 337.40625,367.5625 L 334.71875,370.5625 L 219.0625,499.875 L 214.25,505.25 L 218.46875,511.125 L 318.96875,650.53125 L 321.6875,654.28125 L 326.28125,654.28125 L 631.84375,654.28125 L 636.3125,654.28125 L 639.03125,650.6875 L 739.53125,517.875 L 743.5625,512.5625 L 739.65625,507.15625 L 641.6875,371.3125 L 638.96875,367.5625 L 634.375,367.5625 L 341.4375,367.5625 L 337.40625,367.5625 z M 345.4375,385.5625 L 629.75,385.5625 L 721.1875,512.3125 L 627.375,636.28125 L 330.90625,636.28125 L 237.3125,506.46875 L 345.4375,385.5625 z M 351.03125,400.3125 L 335.875,441.21875 L 395.46875,441.21875 L 355.5625,571.03125 C 345.98117,602.20089 334.35661,608.76772 323.75,615.96875 L 453.0625,615.96875 L 465.1875,570 L 412.65625,570 L 432.71875,506.875 L 506.09375,506.875 C 528.1392,506.875 528.80954,521.14763 533.375,532.625 L 554.0625,468 C 538.97463,483.29525 524.53238,491.71875 507.09375,491.71875 L 437.53125,491.71875 L 453.5625,441.21875 L 573.78125,441.21875 C 593.91124,441.21875 592.52849,469.34305 595.5,493.25 L 624.28125,400.3125 L 351.03125,400.3125 z"
         id="path3259"
         style="fill:#64e8f4;fill-opacity:1;fill-rule:evenodd;stroke:none;stroke-width:1px;stroke-linecap:butt;stroke-linejoin:miter;stroke-opacity:1" />
      <path
         d="M 337.40625,359.46875 C 335.10489,359.46503 332.91109,360.44257 331.375,362.15625 L 328.6875,365.15625 L 213.03125,494.5 L 208.21875,499.875 C 205.70002,502.70012 205.47924,506.89484 207.6875,509.96875 L 211.90625,515.84375 L 312.40625,655.25 C 312.41664,655.26045 312.42705,655.27086 312.4375,655.28125 L 315.15625,659.03125 C 316.67278,661.12681 319.10076,662.36984 321.6875,662.375 L 326.28125,662.375 L 631.84375,662.375 L 636.3125,662.375 C 638.84401,662.3695 641.22669,661.17816 642.75,659.15625 L 645.46875,655.5625 L 745.96875,522.75 L 750,517.4375 C 752.14069,514.61291 752.19137,510.72316 750.125,507.84375 L 746.21875,502.4375 L 648.25,366.59375 C 648.23961,366.5833 648.2292,366.57289 648.21875,366.5625 L 645.5,362.8125 C 643.98347,360.71694 641.55549,359.47391 638.96875,359.46875 L 634.375,359.46875 L 341.4375,359.46875 L 337.40625,359.46875 z M 341.96875,401.5625 L 328.3125,438.40625 C 327.38772,440.88582 327.73547,443.66106 329.24346,445.8358 C 330.75144,448.01053 333.22859,449.30922 335.875,449.3125 L 384.53125,449.3125 L 347.84375,568.65625 C 339.13769,596.97849 330.94266,601.46798 320.6875,608.28125 L 247.65625,507 L 341.96875,401.5625 z M 632.03125,402.53125 L 711.15625,512.21875 L 623.375,628.1875 L 335.03125,628.1875 L 332.0625,624.0625 L 453.0625,624.0625 C 456.73438,624.06022 459.94328,621.58296 460.875,618.03125 L 473,572.0625 C 473.64409,569.63693 473.12484,567.04977 471.59469,565.06058 C 470.06454,563.07138 467.69713,561.90589 465.1875,561.90625 L 423.6875,561.90625 L 438.59375,514.96875 L 506.09375,514.96875 C 515.3725,514.96875 517.48314,516.95093 519.65625,520.0625 C 521.82936,523.17407 523.21726,528.94356 525.875,535.625 C 527.14518,538.78069 530.25537,540.80323 533.65501,540.68431 C 537.05466,540.5654 540.01592,538.33047 541.0625,535.09375 L 561.75,470.46875 C 562.89164,466.9092 561.44322,463.03119 558.24766,461.09156 C 555.0521,459.15193 550.94334,459.65686 548.3125,462.3125 C 533.99351,476.8283 521.93003,483.625 507.09375,483.625 L 448.5625,483.625 L 459.46875,449.3125 L 573.78125,449.3125 C 576.93199,449.3125 577.90506,449.92977 579.28125,451.4375 C 580.65744,452.94523 582.15932,455.95103 583.25,460.25 C 585.43135,468.84794 585.91623,481.75934 587.46875,494.25 C 587.93545,498.03651 590.98648,500.98094 594.78718,501.31275 C 598.58788,501.64456 602.10298,499.27335 603.21875,495.625 L 632,402.6875 C 632.01093,402.63552 632.02135,402.58343 632.03125,402.53125 L 632.03125,402.53125 z"
         id="path3442"
         style="opacity:1;fill:#2dccf2;fill-opacity:1;fill-rule:evenodd;stroke:none;stroke-width:1px;stroke-linecap:butt;stroke-linejoin:miter;stroke-opacity:1;filter:url(#filter3641)" />
      <path
         d="M 337.40625,367.5625 L 334.71875,370.5625 L 219.0625,499.875 L 214.25,505.25 L 218.46875,511.125 L 318.96875,650.53125 L 321.6875,654.28125 L 326.28125,654.28125 L 631.84375,654.28125 L 636.3125,654.28125 L 639.03125,650.6875 L 739.53125,517.875 L 743.5625,512.5625 L 739.65625,507.15625 L 641.6875,371.3125 L 638.96875,367.5625 L 634.375,367.5625 L 341.4375,367.5625 L 337.40625,367.5625 z M 345.4375,385.5625 L 629.75,385.5625 L 721.1875,512.3125 L 627.375,636.28125 L 330.90625,636.28125 L 237.3125,506.46875 L 345.4375,385.5625 z M 351.03125,400.3125 L 335.875,441.21875 L 395.46875,441.21875 L 355.5625,571.03125 C 345.98117,602.20089 334.35661,608.76772 323.75,615.96875 L 453.0625,615.96875 L 465.1875,570 L 412.65625,570 L 432.71875,506.875 L 506.09375,506.875 C 528.1392,506.875 528.80954,521.14763 533.375,532.625 L 554.0625,468 C 538.97463,483.29525 524.53238,491.71875 507.09375,491.71875 L 437.53125,491.71875 L 453.5625,441.21875 L 573.78125,441.21875 C 593.91124,441.21875 592.52849,469.34305 595.5,493.25 L 624.28125,400.3125 L 351.03125,400.3125 z"
         id="path2396"
         style="fill:#64e8f4;fill-opacity:1;fill-rule:evenodd;stroke:none;stroke-width:1px;stroke-linecap:butt;stroke-linejoin:miter;stroke-opacity:1" />
    </g>
  </g>
</svg>
